<?xml version="1.0" encoding="UTF-8" standalone="no"?>
<!-- Created with Inkscape (http://www.inkscape.org/) -->

<svg
   width="123.57342mm"
   height="70.282501mm"
   viewBox="0 0 123.57342 70.282501"
   version="1.1"
   id="svg1"
   xmlns="http://www.w3.org/2000/svg"
   xmlns:svg="http://www.w3.org/2000/svg">
  <defs
     id="defs1" />
  <g
     id="layer1"
     transform="translate(-26.134698,-71.672529)">
    <g
       id="g4"
       transform="matrix(0.83032011,0,0,0.80516555,4.434533,13.964278)">
      <path
         id="path47"
         style="fill:#ff7fc1;fill-opacity:1;stroke:none;stroke-width:0.264583;stroke-opacity:1"
         d="m 42.597058,137.42237 c -0.22099,-0.35757 0.123456,-1.08221 0.51441,-1.08221 0.485029,0 0.745208,0.84196 0.339691,1.09927 -0.444549,0.28207 -0.672032,0.27753 -0.854101,-0.0171 z m -10.948462,-1.11142 c -0.765071,-0.2897 -0.67292,-1.12781 0.136736,-1.24362 0.358791,-0.0513 0.678748,0.1122 0.851633,0.43524 0.373606,0.69808 -0.14957,1.12599 -0.988369,0.80838 z M 147.3573,132.10682 c -0.0899,-0.14552 -0.0932,-0.37844 -0.007,-0.51761 0.21763,-0.35214 0.93318,-0.035 0.93318,0.41363 0,0.42304 -0.68156,0.49957 -0.92604,0.10398 z m 20.67379,-2.40473 c 1.69177,-1.90875 2.24908,-4.45055 1.5577,-7.1044 -0.77307,-2.96739 -1.95778,-4.81215 -5.95723,-9.27628 -2.63648,-2.9428 -4.33364,-5.481 -4.76846,-7.13151 -0.72657,-2.758 1.01177,-6.02801 3.99469,-7.514465 2.40706,-1.19949 5.32233,-0.50325 7.23136,1.727035 1.66832,1.94905 1.86999,4.14596 0.51474,5.60753 -0.62051,0.66919 -0.81839,0.73348 -1.78286,0.57926 -1.24926,-0.19976 -2.17115,-0.95113 -2.35648,-1.92059 -0.20523,-1.07363 0.30048,-2.41498 1.14625,-3.04029 0.42948,-0.31752 0.78087,-0.71507 0.78087,-0.88343 0,-0.53107 -0.889,-1.138625 -2.16577,-1.480105 -1.08548,-0.29033 -1.36408,-0.2706 -2.32993,0.16493 -1.38324,0.623765 -1.95811,1.669575 -1.96394,3.572885 -0.006,1.92746 0.91138,3.34521 5.18654,8.01624 4.49978,4.91645 6.288,8.19136 6.29705,11.53223 0.007,2.62101 -0.82306,4.01799 -3.70103,6.2281 -1.86972,1.43583 -2.39184,1.72204 -1.6835,0.92286 z M 37.27414,129.24687 c -2.773509,-0.82594 -5.530393,-2.31652 -7.076719,-3.82622 -2.958133,-2.88806 -4.633601,-8.12107 -3.884804,-12.13346 0.684797,-3.66945 3.880959,-7.56029 7.353346,-8.95157 1.816208,-0.72771 5.164005,-0.20279 6.997492,1.09717 1.637816,1.16122 2.844888,3.77535 2.844888,6.1611 0,2.31607 -1.977536,5.41098 -4.079757,6.38496 -2.150556,0.99636 -5.046541,0.56792 -6.302549,-0.93244 -0.565414,-0.67541 -0.539973,-0.67588 1.12189,-0.0208 1.745916,0.68818 3.050442,0.66903 4.506559,-0.0661 2.248387,-1.13518 3.438925,-4.82987 2.546034,-7.90131 -0.761629,-2.61991 -3.396044,-4.25821 -6.14481,-3.82136 -1.306771,0.20768 -3.577566,1.52301 -4.558915,2.64071 -1.764367,2.0095 -2.857443,5.49252 -2.609207,8.31407 0.224166,2.54797 0.374085,3.14502 1.292412,5.14706 2.056502,4.48336 8.43067,7.79321 13.938968,7.23795 0.786729,-0.0793 1.514691,-0.28056 1.617693,-0.44722 0.103002,-0.16666 0.203793,-6.63248 0.223979,-14.36849 0.02019,-7.73601 0.110379,-16.387195 0.200429,-19.224855 0.104076,-3.27969 0.06338,-5.52085 -0.111714,-6.15156 -0.151492,-0.54571 -0.218698,-0.99219 -0.149347,-0.99219 0.06935,0 0.625301,0.11279 1.235443,0.25065 0.610143,0.13786 1.551385,0.32102 2.091648,0.40701 l 0.982297,0.15636 -0.10269,5.34768 c -0.293558,15.287205 -0.447172,33.246255 -0.286599,33.506075 0.318648,0.51558 3.185988,-1.25115 4.847063,-2.98656 1.944598,-2.03161 3.275804,-4.40231 4.12844,-7.3522 2.826133,-9.77767 0.915905,-21.154005 -4.527402,-26.962855 -5.462947,-5.8298 -16.707673,-5.8234 -21.846884,0.0125 -0.449805,0.51077 -0.909014,0.90034 -1.020465,0.86571 -0.111451,-0.0346 -0.143661,0.0907 -0.07158,0.27857 0.07208,0.18785 -0.22632,0.87103 -0.66312,1.51818 -0.4368,0.64715 -0.925223,1.80172 -1.085384,2.5657 -0.395313,1.88569 -0.969553,1.83793 -0.795383,-0.0661 0.164614,-1.79961 1.353692,-4.07931 3.155627,-6.04995 1.235983,-1.35171 3.423005,-2.80952 5.521001,-3.68015 1.976643,-0.82027 2.18674,-0.85138 5.755695,-0.85229 4.279543,-0.001 5.068785,0.18421 8.863542,2.08104 1.091406,0.54555 2.908199,1.7312 4.037317,2.63478 5.562065,4.45109 7.909615,9.70071 7.88857,17.640525 -0.01402,5.2846 -1.377251,10.03809 -3.923353,13.68032 -1.81669,2.5988 -5.531331,5.89957 -7.941169,7.05641 -1.125157,0.54013 -2.514444,1.23135 -3.087304,1.53606 -0.899636,0.47852 -1.602677,0.56702 -5.159375,0.64947 -3.399138,0.0788 -4.397753,0.0121 -5.721806,-0.38221 z m 46.672031,-0.80658 c -0.67873,-0.27413 -1.61525,-0.76984 -2.08115,-1.10159 -0.84908,-0.60461 -2.10133,-2.86451 -2.10618,-3.801 -0.002,-0.36165 -0.47217,-0.018 -1.70575,1.24628 -2.07007,2.12164 -3.11632,2.61324 -5.57287,2.6185 -2.3809,0.005 -3.84498,-0.62872 -5.46556,-2.36611 -2.788459,-2.98948 -3.743075,-7.05095 -2.971156,-12.64101 0.584726,-4.23445 1.843466,-7.08269 4.203026,-9.5105 2.18531,-2.24852 5.51467,-3.160685 7.89945,-2.16426 1.91756,0.80121 3.55717,2.96844 3.97059,5.2483 0.23057,1.27153 -0.33916,2.93564 -1.36684,3.99235 -1.76719,1.8171 -3.71711,2.67959 -8.56311,3.78766 -2.34915,0.53714 -2.33916,0.51983 -2.17373,3.76853 0.19506,3.83062 1.40867,6.95963 3.09913,7.99039 2.54519,1.55193 6.25171,-0.24366 7.60829,-3.68575 0.32281,-0.81907 0.81738,-1.87722 1.09905,-2.35145 1.00329,-1.6892 3.9305,-2.7522 5.4053,-1.9629 0.64328,0.34427 1.93993,1.8139 1.93993,2.19873 0,0.14247 -0.27182,-0.057 -0.60404,-0.4432 -0.69721,-0.81055 -2.64793,-1.1754 -3.58969,-0.67138 -0.8016,0.429 -1.68156,2.29383 -1.70233,3.60761 -0.0402,2.54362 2.32943,5.46382 4.72523,5.82309 1.6094,0.24134 3.64087,-0.34473 4.88439,-1.40914 2.43857,-2.08732 1.87559,-5.59389 -1.55617,-9.69272 -4.94388,-5.90489 -5.83383,-7.02564 -6.32465,-7.96494 -1.08802,-2.08217 -1.2047,-2.96592 -0.69816,-5.28778 0.35762,-1.63927 1.58308,-3.09817 3.41021,-4.059855 1.11503,-0.58689 1.65554,-0.69504 3.43959,-0.68825 1.82921,0.007 2.287,0.10795 3.37092,0.7437 1.47983,0.867965 2.12523,1.626985 2.73003,3.210635 0.53276,1.39501 0.35506,2.73733 -0.49035,3.70392 -1.77968,2.03478 -4.45727,0.70319 -4.46923,-2.2226 -0.003,-0.71704 0.218,-1.09869 1.10584,-1.91025 1.21027,-1.1063 1.23941,-1.40184 0.21373,-2.16762 -1.60504,-1.198335 -4.65046,-0.724155 -5.59261,0.87079 -0.59704,1.0107 -0.83585,2.94964 -0.48667,3.9513 0.48741,1.39817 2.07657,3.55784 4.71376,6.406 4.44997,4.80594 5.68532,7.02504 5.50852,9.89514 -0.15474,2.51213 -2.22915,5.38221 -4.79878,6.63942 -1.9734,0.96549 -5.15773,1.14723 -7.00796,0.39996 z m -12.21551,-16.48808 c 1.95524,-0.72151 2.71215,-1.41998 3.55633,-3.28179 0.87317,-1.92572 1.14835,-3.82857 0.78655,-5.43891 -0.32118,-1.42956 -1.0822,-2.08094 -2.43125,-2.08094 -2.322,0 -3.86297,2.67244 -4.84396,8.40064 -0.584,3.41005 -0.60469,3.29862 0.57303,3.08525 0.54571,-0.0989 1.60739,-0.40678 2.3593,-0.68425 z M 102.442,127.53333 c -1.19362,-0.7226 -2.17871,-2.10804 -2.931979,-4.12358 -0.50416,-1.34897 -0.55734,-2.05064 -0.56405,-7.44251 -0.004,-3.27422 0.0898,-8.42367 0.20858,-11.44323 l 0.21601,-5.490105 h -2.61283 c -1.77465,0 -2.76939,-0.11448 -3.10085,-0.35685 -0.45825,-0.33508 -0.44116,-0.37305 0.28016,-0.62249 0.4225,-0.1461 1.78021,-0.29073 3.01714,-0.32139 1.23692,-0.0307 2.33224,-0.1375 2.43403,-0.23741 0.10179,-0.0999 0.25893,-1.55087 0.34919,-3.22436 0.24139,-4.47557 0.301599,-4.87008 0.935249,-6.1276 0.88143,-1.74929 2.7586,-4.49712 3.65835,-5.35516 l 0.80443,-0.767124 -0.24679,0.899424 c -0.50259,1.83171 -1.0855,6.83592 -1.24203,10.66268 l -0.16125,3.94244 3.67972,-0.1625 c 2.02385,-0.0894 4.54292,-0.24362 5.59795,-0.34279 2.03732,-0.19148 2.4658,0.0651 1.32292,0.79214 -0.78436,0.49898 -2.32352,0.68293 -9.02207,1.07829 -0.99669,0.0588 -1.85212,0.14692 -1.90097,0.19576 -0.0871,0.0871 -0.26751,5.978685 -0.5047,16.483395 -0.17186,7.6111 0.33248,10.49406 1.90487,10.8887 0.54366,0.13645 2.38908,-0.0116 4.25811,-0.34159 l 0.70069,-0.12371 -0.56311,0.56959 c -0.57369,0.58028 -3.64575,1.57582 -4.85512,1.57337 -0.36695,-8e-4 -1.11469,-0.27227 -1.66165,-0.60339 z m 57.1377,-0.74367 c -1.12402,-0.59315 -2.41736,-2.42691 -2.87157,-4.07148 -0.41091,-1.48778 0.0608,-4.20492 0.88303,-5.08604 1.49983,-1.60732 3.48427,-1.98443 5.24426,-0.99658 0.70724,0.39696 0.47301,0.48594 -0.39078,0.14845 -0.80254,-0.31356 -2.56887,0.19291 -3.3812,0.9695 -0.90287,0.86314 -1.24471,2.03691 -1.07491,3.69084 0.28826,2.80771 1.9096,4.60131 4.51617,4.99603 1.84899,0.27999 1.26928,0.91435 -0.8154,0.89225 -0.60656,-0.006 -1.55588,-0.25077 -2.1096,-0.54297 z m -24.45146,-0.53743 c -1.11512,-0.31655 -2.01694,-1.85887 -2.61025,-4.46416 -0.5273,-2.31541 -0.62938,-7.59019 -0.2765,-14.2875 0.12651,-2.40109 0.26169,-5.08 0.3004,-5.95312 0.0387,-0.87313 0.14677,-2.599535 0.24014,-3.836465 0.0934,-1.23693 0.21729,-4.56657 0.27538,-7.39921 l 0.10563,-5.15025 0.87942,-0.71895 c 0.90775,-0.7421 2.38619,-1.18198 2.90174,-0.86335 0.20173,0.12468 0.23618,0.88813 0.11017,2.44119 -0.10085,1.24288 -0.17451,4.17335 -0.16368,6.51215 0.0108,2.33881 -0.10336,4.6691 -0.25374,5.17842 -0.15038,0.50932 -0.32799,2.711985 -0.39469,4.894795 -0.0667,2.18281 -0.21026,6.17141 -0.31902,8.86354 -0.46599,11.53436 -0.0844,13.77915 2.27709,13.39593 0.51557,-0.0837 1.23899,-0.37319 1.6076,-0.64338 0.36861,-0.2702 0.92918,-0.55767 1.24572,-0.63883 1.46969,-0.37685 -0.62136,1.46367 -2.59573,2.28472 -1.33038,0.55325 -2.32894,0.66855 -3.32968,0.38447 z m -22.13629,-0.64856 c -0.89625,-0.28628 -1.73138,-0.85177 -2.7244,-1.84479 -3.73983,-3.73983 -4.55522,-10.34657 -2.17266,-17.60419 1.00038,-3.04733 3.27346,-5.67585 5.69029,-6.580105 1.73954,-0.65085 2.47105,-0.67105 4.35379,-0.12027 2.41118,0.705385 3.9829,2.728265 4.36649,5.619895 0.22965,1.73119 0.0287,2.46753 -0.98995,3.62772 -1.42745,1.62578 -3.42829,2.47684 -7.70741,3.27837 -1.42613,0.26713 -2.65438,0.54711 -2.72944,0.62218 -0.26389,0.26389 -0.15799,4.3057 0.14708,5.61372 1.03881,4.45395 2.534,6.48229 4.77843,6.48229 2.53499,0 5.69835,-3.25908 6.614,-6.81412 0.22614,-0.878 0.24364,-0.80283 0.15336,0.65878 -0.3191,5.16623 -5.03988,8.57447 -9.77958,7.06052 z m 0.71984,-14.64694 c 1.51257,-0.34706 3.04398,-1.08937 3.66054,-1.77436 1.41224,-1.56895 2.11403,-6.20331 1.20191,-7.93696 -0.70649,-1.342825 -2.58896,-1.721735 -3.99069,-0.80328 -1.25987,0.82549 -2.73195,5.12952 -3.20944,9.38365 -0.21149,1.88425 -0.44758,1.77003 2.33768,1.13095 z m 32.66469,14.28688 c -1.29297,-0.41284 -3.62529,-1.88467 -4.13755,-2.61101 -1.90252,-2.69763 -2.71344,-5.6748 -2.71636,-9.97265 -0.002,-3.69569 0.47342,-5.60136 2.07304,-8.30074 3.23619,-5.461135 8.44477,-6.579985 12.28374,-2.63866 1.61026,1.65321 2.01756,2.42425 2.77369,5.25086 0.49868,1.86417 0.58426,2.74691 0.50018,5.15937 -0.15942,4.57425 -1.33478,7.54161 -4.22409,10.66428 -1.86863,2.01954 -4.64598,3.05736 -6.55265,2.44855 z m 3.47145,-1.53011 c 1.87422,-1.35446 2.96077,-5.62334 3.08284,-12.11189 0.0933,-4.96001 -0.26171,-7.80271 -1.20552,-9.65273 -1.27615,-2.501475 -4.62172,-2.319125 -5.98981,0.32647 -1.79689,3.4748 -2.80095,11.42306 -2.08057,16.47001 0.37919,2.65655 0.51592,3.10812 1.27064,4.19624 1.0371,1.49524 3.40722,1.86691 4.92242,0.7719 z m -25.14626,-0.51288 c -0.422,-0.51079 -0.39082,-9.26414 0.0573,-16.09692 0.14318,-2.18281 0.31766,-5.15938 0.38774,-6.61459 0.2688,-5.581205 0.71392,-10.149765 1.22449,-12.567705 0.59103,-2.79903 2.30985,-6.686341 3.91182,-8.84705 1.34235,-1.810554 3.51389,-3.796852 4.68664,-4.28686 2.18529,-0.91307 5.38264,-0.253506 6.66325,1.374526 0.79564,1.011493 1.62389,3.411085 1.6194,4.691702 -0.0101,2.883172 -1.62134,7.383012 -3.84874,10.748852 -0.7534,1.13846 -1.20601,1.31943 -0.61049,0.24409 0.18822,-0.33988 0.31459,-0.7143 0.28081,-0.83204 -0.0338,-0.11773 0.34335,-1.30836 0.83806,-2.64583 1.46748,-3.96733 1.84033,-6.272094 1.43593,-8.876076 -0.48804,-3.142504 -2.55128,-4.720757 -5.13485,-3.927839 -3.00966,0.923693 -5.49486,6.311854 -6.43142,13.944025 -0.68065,5.54659 -0.8856,9.55563 -1.21058,23.680205 -0.17902,7.78061 -0.24646,8.47755 -0.92892,9.59977 -0.4404,0.72417 -0.67146,0.85128 -1.54752,0.85128 -0.63771,0 -1.16809,-0.16736 -1.39296,-0.43954 z M 74.635861,95.197445 c -0.6927,-5.67373 -0.79279,-5.81436 -4.32422,-6.0755 -3.19029,-0.23592 -3.9278,-0.57887 -1.4033,-0.65255 3.10534,-0.0906 4.10423,-0.33092 4.08408,-0.98245 -0.0124,-0.40187 0.11057,-0.51526 0.4598,-0.42394 0.26223,0.0686 0.52978,-0.0376 0.59456,-0.23606 0.15331,-0.46953 0.39946,-3.93135 0.40976,-5.762661 0.0125,-2.223892 0.2522,-1.454009 0.53633,1.722591 0.29031,3.24572 0.6789,4.76891 1.27498,4.99765 0.22261,0.0854 1.66412,0.27643 3.20335,0.42446 3.73786,0.35946 3.76606,0.38946 0.57361,0.61028 -4.34435,0.3005 -4.59923,0.58118 -5.01101,5.51833 l -0.20412,2.44735 z m -7.5775,0.13621 c -0.18374,-0.34331 -0.14653,-0.56801 0.13238,-0.79949 0.51208,-0.42498 1.18844,-0.14508 1.18844,0.49182 0,0.6966 -0.98934,0.92705 -1.32082,0.30767 z m -30.355592,-0.0701 c -0.578513,-0.74801 -0.596947,-0.97668 -0.10017,-1.24254 1.002634,-0.5366 1.954864,0.40094 1.187062,1.16874 -0.49104,0.49104 -0.750573,0.50866 -1.086892,0.0738 z m 108.324761,-1.02158 c -1.21431,-0.70642 -1.05011,-2.71991 0.24838,-3.04581 0.55736,-0.13989 0.82253,-0.0473 1.19999,0.4188 0.59436,0.73401 0.62763,1.94633 0.0687,2.50522 -0.48095,0.48094 -0.84896,0.51049 -1.51712,0.12179 z m 1.66831,-1.658 c 0,-0.0549 -0.15875,-0.23164 -0.35278,-0.39267 -0.26703,-0.22162 -0.35278,-0.19734 -0.35278,0.0999 0,0.21597 0.15875,0.39268 0.35278,0.39268 0.19403,0 0.35278,-0.045 0.35278,-0.0999 z m -63.764579,0.89365 c 0,-0.4356 0.13713,-0.5465 0.59531,-0.48143 0.32742,0.0465 0.59531,0.26315 0.59531,0.48143 0,0.21828 -0.26789,0.43492 -0.59531,0.48142 -0.45818,0.0651 -0.59531,-0.0458 -0.59531,-0.48142 z m 32.354729,-0.26022 c -1.81188,-0.8112 -2.04138,-3.22089 -0.42765,-4.49025 2.2032,-1.73303 5.28299,0.73525 4.18266,3.35216 -0.59833,1.42301 -2.10122,1.87851 -3.75501,1.13809 z m 37.06049,0.12456 c -0.0845,-0.22014 -0.005,-0.57879 0.1757,-0.79702 0.40614,-0.48937 1.05283,-0.0591 1.05283,0.70049 0,0.60821 -1.00197,0.68694 -1.22853,0.0965 z m 13.15635,-2.3519 c -0.41005,-0.49408 -0.27203,-1.3489 0.2178,-1.3489 0.20043,0 0.49443,0.20612 0.65335,0.45805 0.22099,0.35036 0.19133,0.55567 -0.12618,0.87318 -0.36854,0.36853 -0.45214,0.37051 -0.74497,0.0177 z m -7.65981,-1.29599 c -0.0717,-1.68004 -0.45506,-3.20619 -0.89647,-3.56837 -0.18086,-0.1484 -1.51946,-0.42681 -2.97467,-0.6187 l -2.64583,-0.34888 2.11719,-0.16515 c 2.23224,-0.17412 3.63994,-0.70893 4.09268,-1.55486 0.14983,-0.27997 0.27424,-1.499131 0.27647,-2.709245 0.004,-2.375585 0.39741,-2.457196 0.49268,-0.102302 0.14503,3.584907 0.35978,3.885777 3.03325,4.249707 1.50486,0.20485 1.46196,0.389 -0.13238,0.56832 -0.63175,0.071 -1.41062,0.29908 -1.73083,0.50673 -0.68477,0.44407 -1.13406,1.87093 -1.13613,3.60808 -0.002,1.71442 -0.4237,1.82891 -0.49596,0.13467 z m -9.42739,-1.50812 c -0.0899,-0.14552 -0.0374,-0.26458 0.11668,-0.26458 0.15411,0 0.2802,0.11906 0.2802,0.26458 0,0.14552 -0.0525,0.26458 -0.11668,0.26458 -0.0642,0 -0.19026,-0.11906 -0.2802,-0.26458 z m -52.229469,-2.11667 c -0.0252,-0.3638 -0.0949,-1.07817 -0.15495,-1.5875 -0.0601,-0.50932 -0.1801,-1.58577 -0.26672,-2.392117 -0.1,-0.930841 -0.3704,-1.731095 -0.74068,-2.191986 -0.54784,-0.681921 -0.74751,-0.735789 -3.29516,-0.888993 -1.49158,-0.0897 -2.71197,-0.247065 -2.71197,-0.349704 0,-0.10264 1.26173,-0.251013 2.80385,-0.329719 3.22851,-0.164774 3.67584,-0.39742 2.73566,-1.422754 l -0.64472,-0.703118 0.71596,0.457836 c 0.39379,0.25181 0.84027,0.381017 0.99219,0.287125 0.16223,-0.100265 0.28314,-1.338008 0.29299,-2.999369 0.0186,-3.126692 0.34418,-3.010932 0.60214,0.214053 0.0873,1.091406 0.16236,2.192734 0.16679,2.447395 0.004,0.254662 0.17276,0.463021 0.37407,0.463021 0.20131,0 0.42484,0.224946 0.49674,0.499879 0.13466,0.514959 1.12632,0.738789 3.940479,0.88942 1.57936,0.08454 1.4261,0.364049 -0.22802,0.415855 -2.036029,0.06377 -3.074839,0.307306 -3.781469,0.886527 -0.60218,0.493609 -0.68789,0.829992 -0.95645,3.753899 -0.16225,1.76644 -0.31558,2.91406 -0.34073,2.55025 z m -31.599345,0.0882 c -0.335436,-0.33544 -0.174336,-0.61736 0.352777,-0.61736 0.293978,0 0.529168,0.17639 0.529168,0.39687 0,0.40281 -0.559701,0.54273 -0.881945,0.22049 z m 22.114755,-0.79259 c -0.47142,-0.19022 -0.40966,-1.13401 0.0867,-1.32447 0.54033,-0.20734 1.28965,0.54198 1.0823,1.08231 -0.15968,0.41612 -0.5417,0.49526 -1.16896,0.24216 z M 60.094167,81.827547 c -0.785092,-0.617555 -0.895074,-1.225943 -0.355115,-1.964382 0.476758,-0.652005 1.546606,-0.37729 2.027097,0.520519 0.331991,0.62033 0.3063,0.735544 -0.298977,1.340821 l -0.662178,0.662178 z" />
      <path
         style="fill:#333333;fill-opacity:1;stroke-width:0.264583"
         d="m 165.48126,144.9235 c 0,-0.22687 0.121,-0.3377 0.2689,-0.2463 0.14789,0.0914 0.2004,0.27702 0.11667,0.41249 -0.22681,0.36699 -0.38557,0.29856 -0.38557,-0.16619 z"
         id="path46" />
      <path
         style="fill:#ff7fc1;fill-opacity:1;stroke:none;stroke-width:0.264583;stroke-opacity:1"
         d="m 37.850345,149.90476 c -0.185435,-2.65483 -0.538995,-4.44298 -0.925744,-4.682 -0.248097,-0.15333 -1.383797,-0.30055 -4.264174,-0.55274 -1.091406,-0.0956 -2.033985,-0.22293 -2.094618,-0.28305 -0.267387,-0.26513 0.285336,-0.34367 2.761392,-0.39237 3.115877,-0.0613 3.383603,-0.12838 3.044051,-0.76284 -0.209292,-0.39106 -0.151137,-0.44526 0.370707,-0.34551 0.340417,0.0651 0.696216,-0.007 0.790663,-0.15953 0.09445,-0.15282 0.242554,-1.62255 0.329125,-3.26606 0.08657,-1.64352 0.257756,-3.16681 0.380412,-3.38509 0.160949,-0.28643 0.227519,-0.17598 0.239214,0.39688 0.05206,2.55019 0.338909,5.65535 0.580797,6.28722 0.318715,0.83255 0.600397,0.92925 4.006363,1.37534 l 2.424185,0.3175 -2.761608,0.21476 c -2.369181,0.18424 -2.848549,0.3017 -3.373437,0.82659 -0.336506,0.3365 -0.620033,0.88513 -0.630059,1.21917 -0.01003,0.33403 -0.05738,0.90499 -0.105225,1.26879 -0.04785,0.3638 -0.165633,1.4919 -0.261746,2.50689 -0.09611,1.01498 -0.209633,1.88031 -0.252267,1.92294 -0.04263,0.0426 -0.158747,-1.08546 -0.258031,-2.50689 z"
         id="path44" />
      <path
         style="fill:#333333;fill-opacity:1;stroke-width:0.264583"
         d="m 51.3391,154.63774 c -0.09156,-0.14814 -0.03754,-0.34903 0.120031,-0.44642 0.406791,-0.25141 0.669255,0.093 0.329665,0.43255 -0.190018,0.19002 -0.33801,0.19458 -0.449696,0.0139 z"
         id="path43" />
      <path
         style="fill:#ff7fc1;fill-opacity:1;stroke:none;stroke-width:0.264583;stroke-opacity:1"
         d="m 158.36286,157.37453 c -0.22235,-4.504 -0.73589,-5.15937 -4.04279,-5.15937 -1.99758,0 -1.28728,-0.42829 1.03203,-0.62227 2.49352,-0.20856 2.70931,-0.42824 2.75213,-2.80174 0.0172,-0.95445 0.12219,-2.09256 0.23328,-2.52912 0.1867,-0.73373 0.20569,-0.70371 0.25113,0.39688 0.18333,4.43983 0.42281,4.91726 2.5862,5.15575 2.14135,0.23606 2.48502,0.33424 1.29441,0.3698 -0.5652,0.0169 -1.48459,0.1676 -2.04309,0.33493 -1.19925,0.35931 -1.55453,1.1462 -1.83369,4.06139 -0.12394,1.29421 -0.1931,1.5333 -0.22961,0.79375 z"
         id="path41" />
      <path
         style="fill:#ff7fc1;fill-opacity:1;stroke:none;stroke-width:0.264583;stroke-opacity:1"
         d="m 141.84472,157.07692 c -0.27146,-2.53987 -0.5101,-2.81217 -2.5878,-2.95285 -2.18031,-0.14763 -2.53356,-0.47734 -0.59543,-0.55575 1.77937,-0.072 2.87786,-0.5708 3.10232,-1.40871 0.0893,-0.33325 0.17842,-1.43935 0.19811,-2.458 l 0.0358,-1.85208 0.30513,2.44077 c 0.16783,1.34242 0.43829,2.57391 0.60102,2.73665 0.16274,0.16273 1.17179,0.38244 2.24236,0.48823 2.01987,0.19961 1.87798,0.36127 -0.59748,0.68076 -1.86043,0.24011 -2.10405,0.53396 -2.31692,2.79463 l -0.18564,1.97146 z"
         id="path40" />
      <path
         style="fill:#ff80c0;fill-opacity:1;stroke:none;stroke-width:0.264583;stroke-opacity:1"
         id="path99"
         d="m 174.6262,125.13256 c -1.61615,10.00529 -11.73162,15.9373 -21.05894,17.25319 -14.08573,1.89066 -28.24728,-1.09111 -41.94948,-4.17339 -10.0271,-2.39537 -20.163354,-4.32054 -30.402582,-5.51601 -9.663194,-1.52664 -20.107389,-3.20024 -29.39473,0.8234 -8.725615,5.3696 -6.034474,20.27329 3.188519,23.61066 5.148285,2.83227 11.84541,-0.55107 10.114147,-6.86885 -0.852548,-4.61531 0.817395,3.83527 -2.402119,3.99031 -7.398387,4.88659 -17.502893,-3.75471 -15.378952,-11.86595 1.30359,-5.4631 6.678698,-8.78826 12.048807,-9.10828 14.411141,-1.04288 28.62674,2.44929 42.77296,4.66419 11.86589,2.26074 23.46888,6.09457 35.613,6.68173 6.41525,0.36257 12.97757,0.46132 19.27679,-0.8749 7.06623,-2.54437 15.18999,-6.19778 17.66363,-13.93802 0.35869,-1.5348 0.31566,-3.15941 -0.091,-4.67808 z" />
      <text
         xml:space="preserve"
         style="font-style:normal;font-variant:normal;font-weight:normal;font-stretch:normal;font-size:12.0894px;font-family:'Copperplate Gothic Light';-inkscape-font-specification:'Copperplate Gothic Light, ';text-align:start;writing-mode:lr-tb;direction:ltr;text-anchor:start;fill:#24221c;fill-opacity:1;stroke:#000000;stroke-width:0.201796;stroke-linecap:round;stroke-dasharray:none;stroke-opacity:1"
         x="73.725418"
         y="143.63957"
         id="text220"
         transform="scale(0.93432856,1.0702873)"><tspan
           id="tspan220"
           style="font-style:normal;font-variant:normal;font-weight:normal;font-stretch:normal;font-family:'Copperplate Gothic Light';-inkscape-font-specification:'Copperplate Gothic Light, ';fill:#24221c;stroke:#000000;stroke-width:0.201796;stroke-linecap:round;stroke-dasharray:none;stroke-opacity:1"
           x="73.725418"
           y="143.63957">Joyería</tspan></text>
    </g>
  </g>
</svg>
